<svg xmlns="http://www.w3.org/2000/svg" width="93" height="16" viewBox="0 0 93 16">
  <g fill="none" fill-rule="evenodd">
    <rect width="4" height="16" fill="#0684FE"/>
    <rect width="4" height="16" x="7" fill="#FE3F3E"/>
    <rect width="4" height="16" x="14" fill="#35AC80"/>
    <path fill="#000" fill-rule="nonzero" d="M38.2820929,16 L38.2820929,12.64 L30.5140945,12.64 L30.5140945,0 L27,0 L27,16 L38.2820929,16 Z M54.7026972,16 L54.7026972,12.6857143 L46.1255323,12.6857143 L46.1255323,9.39428571 L50.6568647,9.39428571 L50.6568647,6.10285714 L46.1255323,6.10285714 L46.1255323,3.29142857 L54.2403164,3.29142857 L54.2403164,0 L42.6114378,0 L42.6114378,16 L54.7026972,16 Z M62.3149463,16 L63.5171365,12.8914286 L69.5974447,12.8914286 L70.799635,16 L74.6373961,16 L68.2334212,0 L64.858041,0 L58.4771852,16 L62.3149463,16 Z M68.4183736,9.69142857 L64.6730886,9.69142857 L66.0602312,6.24 C66.322247,5.6 66.4840803,5.15047619 66.5457311,4.89142857 C66.65362,5.27238095 66.8154533,5.72190476 67.031231,6.24 L67.031231,6.24 L68.4183736,9.69142857 Z M85.0008112,16 C86.1413506,16 87.1740012,15.8361905 88.0987629,15.5085714 C89.0235246,15.1809524 89.7864531,14.7542857 90.3875482,14.2285714 C90.9886433,13.7028571 91.4895559,13.0857143 91.8902859,12.3771429 C92.291016,11.6685714 92.5761509,10.952381 92.7456905,10.2285714 C92.9152302,9.5047619 93,8.76190476 93,8 C93,6.96380952 92.8497262,5.98095238 92.5491787,5.05142857 C92.2486311,4.12190476 91.7939566,3.27238095 91.1851551,2.50285714 C90.5763537,1.73333333 89.7479213,1.12380952 88.699858,0.674285714 C87.6517948,0.224761905 86.4496045,0 85.0932874,0 L85.0932874,0 L79.1285743,0 L79.1285743,16 L85.0008112,16 Z M85.3707159,12.6857143 L82.6426688,12.6857143 L82.6426688,3.29142857 L85.6250253,3.29142857 C86.8272156,3.29142857 87.7481241,3.76380952 88.387751,4.70857143 C89.0273778,5.65333333 89.3471912,6.75047619 89.3471912,8 C89.3471912,9.24952381 89.0158183,10.3428571 88.3530724,11.28 C87.6903265,12.2171429 86.6962077,12.6857143 85.3707159,12.6857143 L85.3707159,12.6857143 Z"/>
  </g>
</svg>
