<?xml version="1.0" encoding="UTF-8"?>
<svg width="703px" height="358px" viewBox="0 0 703 358" version="1.1" xmlns="http://www.w3.org/2000/svg" xmlns:xlink="http://www.w3.org/1999/xlink">
    <!-- Generator: Sketch 63.1 (92452) - https://sketch.com -->
    <title>Group 4</title>
    <desc>Created with Sketch.</desc>
    <defs>
        <polygon id="path-1" points="0.0256816514 0.506607038 86.0388578 0.506607038 86.0388578 87.0378276 0.0256816514 87.0378276"></polygon>
        <polygon id="path-3" points="0.530086724 0.507417465 115.169626 0.507417465 115.169626 115.293745 0.530086724 115.293745"></polygon>
        <polygon id="path-5" points="0.021685641 0.176563636 73.0722677 0.176563636 73.0722677 73.2948352 0.021685641 73.2948352"></polygon>
        <polygon id="path-7" points="0.447106154 0.175648799 97.1953446 0.175648799 97.1953446 96.5122092 0.447106154 96.5122092"></polygon>
        <polygon id="path-9" points="0 -0.000150909091 41.9638513 -0.000150909091 41.9638513 42.0028794 0 42.0028794"></polygon>
        <polygon id="path-11" points="0.148366534 0.250362791 125.538911 0.250362791 125.538911 125.757425 0.148366534 125.757425"></polygon>
    </defs>
    <g id="Lead-UI-Kit" stroke="none" stroke-width="1" fill="none" fill-rule="evenodd">
        <g id="Lead-UI--App-landing-page" transform="translate(-632.000000, -228.000000)">
            <g id="Bitmap">
                <g id="Group-4" transform="translate(632.000000, 228.000000)">
                    <g id="Group-27" transform="translate(484.000000, 15.000000)">
                        <g id="Group-3" transform="translate(132.605505, 0.000000)">
                            <mask id="mask-2" fill="white">
                                <use xlink:href="#path-1"></use>
                            </mask>
                            <g id="Clip-2"></g>
                            <path d="M79.3698537,85.8867997 L1.16981697,7.21566774 C-0.355696789,5.68096393 -0.355696789,3.19257683 1.16981697,1.65727771 C2.69592248,0.1225739 5.16881697,0.1225739 6.69492248,1.65727771 L84.8949592,80.3284097 C86.4204729,81.8637088 86.4204729,84.3526912 84.8949592,85.8867997 C83.3688537,87.4215035 80.8959592,87.4215035 79.3698537,85.8867997" id="Fill-1" fill="#1B2B80" mask="url(#mask-2)"></path>
                        </g>
                        <path d="M201.280533,47.1359487 L171.923937,17.7420082 C170.398443,16.2145732 170.398443,13.7367868 171.923937,12.2105368 C173.450023,10.6825093 175.922887,10.6825093 177.448973,12.2105368 L206.804977,41.6038848 C208.331063,43.1319123 208.331063,45.6079212 206.804977,47.1359487 C205.280666,48.6633837 202.806619,48.6633837 201.280533,47.1359487" id="Fill-4" fill="#1B2B80"></path>
                        <g id="Group-8" transform="translate(103.472477, 0.000000)">
                            <mask id="mask-4" fill="white">
                                <use xlink:href="#path-3"></use>
                            </mask>
                            <g id="Clip-7"></g>
                            <path d="M108.458251,114.140428 L1.68104456,7.22738964 C0.146434113,5.68963447 0.146434113,3.19786293 1.68104456,1.66010776 C3.21625051,0.122948862 5.70545178,0.122948862 7.24065772,1.66010776 L114.01846,108.573743 C115.553666,110.110902 115.553666,112.60327 114.01846,114.140428 C112.482658,115.678184 109.994052,115.678184 108.458251,114.140428" id="Fill-6" fill="#1B2B80" mask="url(#mask-4)"></path>
                        </g>
                        <path d="M206.281691,135.648362 L83.5239783,12.734488 C81.9935363,11.2015048 81.9935363,8.71687114 83.5239783,7.18448227 C85.0544203,5.6520934 87.5370845,5.6520934 89.0669328,7.18448227 L211.824646,130.098357 C213.355088,131.63134 213.355088,134.115379 211.824646,135.648362 C210.29361,137.180751 207.812727,137.180751 206.281691,135.648362" id="Fill-9" fill="#1B2B80"></path>
                        <path d="M196.225823,154.757614 L64.4385628,22.803127 C62.9058002,21.2684194 62.9058002,18.7800263 64.4385628,17.2453188 C65.9719199,15.7100159 68.4571595,15.7100159 69.9899221,17.2453188 L201.776588,149.199806 C203.309945,150.734513 203.309945,153.222311 201.776588,154.757614 C200.243825,156.292917 197.758585,156.292917 196.225823,154.757614" id="Fill-11" fill="#1B2B80"></path>
                        <path d="M184.162327,169.844136 L49.3716516,34.8821325 C47.8363608,33.3448903 47.8363608,30.8533537 49.3716516,29.3167075 C50.9063471,27.7800613 53.3941254,27.7800613 54.9294162,29.3167075 L189.720092,164.279307 C191.255382,165.815953 191.255382,168.30749 189.720092,169.844136 C188.185396,171.381378 185.697618,171.381378 184.162327,169.844136" id="Fill-13" fill="#1B2B80"></path>
                        <path d="M168.097383,182.921837 L36.3101224,50.9673498 C34.7773598,49.4326423 34.7773598,46.9442492 36.3101224,45.4095416 C37.842885,43.8742388 40.3287191,43.8742388 41.8614817,45.4095416 L173.648147,177.364028 C175.181504,178.898736 175.181504,181.387129 173.648147,182.921837 C172.115385,184.457139 169.630145,184.457139 168.097383,182.921837" id="Fill-15" fill="#1B2B80"></path>
                        <path d="M150.02481,191.976808 L27.2670975,69.0629338 C25.7366556,67.5299505 25.7366556,65.0453169 27.2670975,63.512928 C28.7975395,61.9805391 31.2790164,61.9805391 32.8100521,63.512928 L155.567765,186.426802 C157.098207,187.959786 157.098207,190.443825 155.567765,191.976808 C154.036729,193.509197 151.555846,193.509197 150.02481,191.976808" id="Fill-17" fill="#1B2B80"></path>
                        <path d="M127.910107,198.009596 L21.2419651,91.2049281 C19.7083358,89.6693358 19.7083358,87.1795083 21.2419651,85.643916 C22.7761893,84.1089195 25.2628342,84.1089195 26.7964635,85.643916 L133.464011,192.447988 C134.998235,193.984176 134.998235,196.473408 133.464011,198.009596 C131.930381,199.545188 129.443737,199.545188 127.910107,198.009596" id="Fill-19" fill="#1B2B80"></path>
                        <path d="M99.7874496,198.010624 L21.2409475,119.364202 C19.708675,117.82998 19.708675,115.342375 21.2409475,113.807558 C22.7738145,112.273336 25.2576651,112.273336 26.790532,113.807558 L105.337034,192.45398 C106.869307,193.988797 106.869307,196.475807 105.337034,198.010624 C103.805356,199.544846 101.320317,199.544846 99.7874496,198.010624" id="Fill-21" fill="#1B2B80"></path>
                        <path d="M60.6381832,187.956619 L31.2821793,158.563271 C29.7560931,157.035243 29.7560931,154.558642 31.2821793,153.031207 C32.8064902,151.503772 35.2805368,151.503772 36.806623,153.031207 L66.1632186,182.425147 C67.6887131,183.952582 67.6887131,186.429776 66.1632186,187.956619 C64.6371325,189.484646 62.1642693,189.484646 60.6381832,187.956619" id="Fill-23" fill="#1B2B80"></path>
                        <path d="M24.6123853,293.71261 C11.0186849,293.71261 0,304.745312 0,318.356305 C0,331.967298 11.0186849,343 24.6123853,343 C38.2060858,343 49.2247706,331.967298 49.2247706,318.356305 C49.2247706,304.745312 38.2060858,293.71261 24.6123853,293.71261 M24.6123853,301.598592 C33.8412929,301.598592 41.3488073,309.115657 41.3488073,318.356305 C41.3488073,327.596953 33.8412929,335.114018 24.6123853,335.114018 C15.3834777,335.114018 7.8759633,327.596953 7.8759633,318.356305 C7.8759633,309.115657 15.3834777,301.598592 24.6123853,301.598592" id="Fill-25" fill="#1B2B80"></path>
                    </g>
                    <g id="Group-31" transform="translate(98.000000, 166.000000) scale(-1, -1) translate(-98.000000, -166.000000) ">
                        <g id="Group-3" transform="translate(112.071795, 0.503030)">
                            <mask id="mask-6" fill="white">
                                <use xlink:href="#path-5"></use>
                            </mask>
                            <g id="Clip-2"></g>
                            <path d="M67.408119,72.3222261 L0.993770256,5.84576545 C-0.302342564,4.54895333 -0.302342564,2.44628667 0.993770256,1.14897152 C2.28988308,-0.147840606 4.3895959,-0.147840606 5.68621128,1.14897152 L72.10056,67.6254321 C73.3961703,68.9222442 73.3961703,71.025917 72.10056,72.3222261 C70.8049497,73.6190382 68.7042318,73.6190382 67.408119,72.3222261" id="Fill-1" fill="#1B2B80" mask="url(#mask-6)"></path>
                        </g>
                        <path d="M170.809252,39.7854609 L146.200141,15.1533187 C144.92132,13.8733271 144.92132,11.7969404 146.200141,10.5179418 C147.479458,9.23745373 149.552457,9.23745373 150.831773,10.5179418 L175.440885,35.1495875 C176.719705,36.4295791 176.719705,38.5049728 175.440885,39.7854609 C174.163056,41.0654524 172.088569,41.0654524 170.809252,39.7854609" id="Fill-4" fill="#1B2B80"></path>
                        <g id="Group-8" transform="translate(87.948718, 0.503030)">
                            <mask id="mask-8" fill="white">
                                <use xlink:href="#path-7"></use>
                            </mask>
                            <g id="Clip-7"></g>
                            <path d="M91.5311959,95.5446395 L1.41843692,5.81512622 C0.123329231,4.52503333 0.123329231,2.43376173 1.41843692,1.142668 C2.71404718,-0.147424889 4.81476513,-0.147424889 6.11087795,1.142668 L96.2236369,90.8721813 C97.5192472,92.1622742 97.5192472,94.2545467 96.2236369,95.5446395 C94.9280267,96.8347324 92.8273087,96.8347324 91.5311959,95.5446395" id="Fill-6" fill="#1B2B80" mask="url(#mask-8)"></path>
                        </g>
                        <path d="M174.756029,115.227333 L70.8281754,11.2030714 C69.5324886,9.90567958 69.5324886,7.80288866 70.8281754,6.5059999 C72.1238622,5.20911114 74.2262121,5.20911114 75.5208937,6.5059999 L179.448748,110.530262 C180.744435,111.827151 180.744435,113.929942 179.448748,115.227333 C178.152558,116.524222 176.051716,116.524222 174.756029,115.227333" id="Fill-9" fill="#1B2B80"></path>
                        <path d="M166.736103,130.321489 L55.7476326,19.2304432 C54.456772,17.9383838 54.456772,15.8429221 55.7476326,14.5508627 C57.0389939,13.2588033 59.1320106,13.2588033 60.4228711,14.5508627 L171.411342,125.642409 C172.702202,126.934469 172.702202,129.029429 171.411342,130.321489 C170.11998,131.614049 168.026964,131.614049 166.736103,130.321489" id="Fill-11" fill="#1B2B80"></path>
                        <path d="M155.650633,143.395578 L41.681287,29.3206285 C40.3831607,28.0218032 40.3831607,25.9158723 41.681287,24.6165432 C42.9789099,23.3177179 45.0828912,23.3177179 46.3805142,24.6165432 L160.34986,138.691493 C161.647483,139.990822 161.647483,142.096753 160.34986,143.395578 C159.052237,144.694403 156.948255,144.694403 155.650633,143.395578" id="Fill-13" fill="#1B2B80"></path>
                        <path d="M142.613145,154.466943 L31.6245567,43.3758977 C30.3336948,42.0838384 30.3336948,39.9888778 31.6245567,38.6963173 C32.9159193,37.4042579 35.0089383,37.4042579 36.2998002,38.6963173 L147.287888,149.787864 C148.579251,151.079923 148.579251,153.174884 147.287888,154.466943 C145.997026,155.759504 143.904007,155.759504 142.613145,154.466943" id="Fill-15" fill="#1B2B80"></path>
                        <path d="M127.515004,162.512182 L23.5871497,58.4879199 C22.2914629,57.1905281 22.2914629,55.0877371 23.5871497,53.7908484 C24.8828365,52.4939596 26.9836786,52.4939596 28.2798681,53.7908484 L132.207722,157.81511 C133.503409,159.111999 133.503409,161.21479 132.207722,162.512182 C130.911533,163.809071 128.810691,163.809071 127.515004,162.512182" id="Fill-17" fill="#1B2B80"></path>
                        <path d="M108.432554,167.545115 L18.5588732,77.586861 C17.2667004,76.2934793 17.2667004,74.1968766 18.5588732,72.9029933 C19.8510461,71.6101134 21.9461907,71.6101134 23.2383635,72.9029933 L113.112546,162.860746 C114.40522,164.154629 114.40522,166.251734 113.112546,167.545115 C111.820373,168.838497 109.724727,168.838497 108.432554,167.545115" id="Fill-19" fill="#1B2B80"></path>
                        <path d="M84.3476269,167.538227 L18.552393,100.767288 C17.2688604,99.4642159 17.2688604,97.3522188 18.552393,96.0496522 C19.8359256,94.7470856 21.9165628,94.7470856 23.2005932,96.0496522 L88.9963249,162.820591 C90.2798575,164.123663 90.2798575,166.23566 88.9963249,167.538227 C87.7132902,168.840793 85.6316573,168.840793 84.3476269,167.538227" id="Fill-21" fill="#1B2B80"></path>
                        <path d="M52.2041242,158.500601 L27.5950129,133.868661 C26.3161923,132.588158 26.3161923,130.512739 27.5950129,129.232732 C28.8728413,127.952726 30.9468324,127.952726 32.226149,129.232732 L56.8357564,153.864672 C58.1145769,155.145176 58.1145769,157.221091 56.8357564,158.500601 C55.5564397,159.780608 53.4829448,159.780608 52.2041242,158.500601" id="Fill-23" fill="#1B2B80"></path>
                        <g id="Group-27" transform="translate(0.502564, 247.993939)">
                            <mask id="mask-10" fill="white">
                                <use xlink:href="#path-9"></use>
                            </mask>
                            <g id="Clip-26"></g>
                            <path d="M20.9818,-0.000150909091 C9.39317436,-0.000150909091 -0.000251282051,9.40198848 -0.000251282051,21.0013642 C-0.000251282051,32.60074 9.39317436,42.0028794 20.9818,42.0028794 C32.5704256,42.0028794 41.9638513,32.60074 41.9638513,21.0013642 C41.9638513,9.40198848 32.5704256,-0.000150909091 20.9818,-0.000150909091 M20.9818,6.72033394 C28.849441,6.72033394 35.2500974,13.1269279 35.2500974,21.0013642 C35.2500974,28.8763036 28.849441,35.2828976 20.9818,35.2828976 C13.1146615,35.2828976 6.71400513,28.8763036 6.71400513,21.0013642 C6.71400513,13.1269279 13.1146615,6.72033394 20.9818,6.72033394" id="Fill-25" fill="#1B2B80" mask="url(#mask-10)"></path>
                        </g>
                        <g id="Group-30" transform="translate(69.856410, 205.739394)">
                            <mask id="mask-12" fill="white">
                                <use xlink:href="#path-11"></use>
                            </mask>
                            <g id="Clip-29"></g>
                            <path d="M62.8437389,0.250362791 C28.2173726,0.250362791 0.148366534,28.3454069 0.148366534,63.0038941 C0.148366534,97.6623814 28.2173726,125.757425 62.8437389,125.757425 C97.4701052,125.757425 125.539111,97.6623814 125.539111,63.0038941 C125.539111,28.3454069 97.4701052,0.250362791 62.8437389,0.250362791 M62.8437389,6.9440728 C93.7279048,6.9440728 118.851605,32.0910787 118.851605,63.0038941 C118.851605,93.9162085 93.7279048,119.063715 62.8437389,119.063715 C31.959573,119.063715 6.83587292,93.9162085 6.83587292,63.0038941 C6.83587292,32.0910787 31.959573,6.9440728 62.8437389,6.9440728" id="Fill-28" fill="#1B2B80" mask="url(#mask-12)"></path>
                        </g>
                    </g>
                </g>
            </g>
        </g>
    </g>
</svg>